<mxfile host="app.diagrams.net" modified="2021-06-15T07:46:58.718Z" agent="5.0 (X11; Linux x86_64) AppleWebKit/537.36 (KHTML, like Gecko) Chrome/91.0.4472.101 Safari/537.36" etag="csIbe1zLj1MQqCGA4F66" version="14.7.3" type="github">
  <diagram id="6LgteO1reEMYxRWKNLiw" name="Page-1">
    <mxGraphModel dx="1125" dy="645" grid="0" gridSize="10" guides="1" tooltips="1" connect="1" arrows="1" fold="1" page="1" pageScale="1" pageWidth="1169" pageHeight="827" math="0" shadow="0">
      <root>
        <mxCell id="0" />
        <mxCell id="1" parent="0" />
        <mxCell id="4hAyHRP81Br7KVnaIdBe-1" value="&lt;font style=&quot;font-size: 20px&quot;&gt;Spherical Projection&lt;/font&gt;" style="rounded=1;whiteSpace=wrap;html=1;strokeWidth=3;" parent="1" vertex="1">
          <mxGeometry x="143" y="298" width="126" height="162" as="geometry" />
        </mxCell>
        <mxCell id="4hAyHRP81Br7KVnaIdBe-2" value="" style="endArrow=classic;html=1;entryX=0;entryY=0.5;entryDx=0;entryDy=0;strokeWidth=3;" parent="1" target="4hAyHRP81Br7KVnaIdBe-1" edge="1">
          <mxGeometry width="50" height="50" relative="1" as="geometry">
            <mxPoint x="10" y="379" as="sourcePoint" />
            <mxPoint x="610" y="569" as="targetPoint" />
          </mxGeometry>
        </mxCell>
        <mxCell id="4hAyHRP81Br7KVnaIdBe-3" value="&lt;font style=&quot;font-size: 20px&quot;&gt;LIDAR data&lt;/font&gt;" style="edgeLabel;html=1;align=center;verticalAlign=middle;resizable=0;points=[];" parent="4hAyHRP81Br7KVnaIdBe-2" vertex="1" connectable="0">
          <mxGeometry x="-0.1955" y="-1" relative="1" as="geometry">
            <mxPoint x="10" y="-16" as="offset" />
          </mxGeometry>
        </mxCell>
        <mxCell id="4hAyHRP81Br7KVnaIdBe-8" style="edgeStyle=orthogonalEdgeStyle;rounded=0;orthogonalLoop=1;jettySize=auto;html=1;strokeWidth=3;exitX=1;exitY=0.25;exitDx=0;exitDy=0;" parent="1" source="4hAyHRP81Br7KVnaIdBe-4" edge="1">
          <mxGeometry relative="1" as="geometry">
            <mxPoint x="1110" y="339" as="targetPoint" />
          </mxGeometry>
        </mxCell>
        <mxCell id="4hAyHRP81Br7KVnaIdBe-13" value="&lt;font style=&quot;font-size: 20px&quot;&gt;Denoised Image&lt;/font&gt;" style="edgeLabel;html=1;align=center;verticalAlign=middle;resizable=0;points=[];" parent="4hAyHRP81Br7KVnaIdBe-8" vertex="1" connectable="0">
          <mxGeometry x="-0.1909" y="1" relative="1" as="geometry">
            <mxPoint x="19" y="-18" as="offset" />
          </mxGeometry>
        </mxCell>
        <mxCell id="4hAyHRP81Br7KVnaIdBe-4" value="&lt;font style=&quot;font-size: 20px&quot;&gt;Image Denoising&lt;/font&gt;" style="rounded=1;whiteSpace=wrap;html=1;strokeWidth=3;" parent="1" vertex="1">
          <mxGeometry x="802" y="298" width="121" height="162" as="geometry" />
        </mxCell>
        <mxCell id="AvfYTHyhtZwUQ6fmVQS9-8" value="" style="endArrow=classic;html=1;strokeWidth=3;exitX=1;exitY=0.5;exitDx=0;exitDy=0;entryX=0;entryY=0.5;entryDx=0;entryDy=0;" edge="1" parent="1" source="4hAyHRP81Br7KVnaIdBe-1" target="AvfYTHyhtZwUQ6fmVQS9-10">
          <mxGeometry width="50" height="50" relative="1" as="geometry">
            <mxPoint x="500" y="417" as="sourcePoint" />
            <mxPoint x="557" y="379" as="targetPoint" />
          </mxGeometry>
        </mxCell>
        <mxCell id="AvfYTHyhtZwUQ6fmVQS9-9" value="&lt;font style=&quot;font-size: 20px&quot;&gt;Multi-channel Image&lt;/font&gt;" style="edgeLabel;html=1;align=center;verticalAlign=middle;resizable=0;points=[];" vertex="1" connectable="0" parent="AvfYTHyhtZwUQ6fmVQS9-8">
          <mxGeometry x="0.5254" y="1" relative="1" as="geometry">
            <mxPoint x="-66" y="-20" as="offset" />
          </mxGeometry>
        </mxCell>
        <mxCell id="AvfYTHyhtZwUQ6fmVQS9-11" style="edgeStyle=orthogonalEdgeStyle;rounded=0;orthogonalLoop=1;jettySize=auto;html=1;strokeWidth=3;" edge="1" parent="1" source="AvfYTHyhtZwUQ6fmVQS9-10" target="4hAyHRP81Br7KVnaIdBe-4">
          <mxGeometry relative="1" as="geometry" />
        </mxCell>
        <mxCell id="AvfYTHyhtZwUQ6fmVQS9-12" value="&lt;font style=&quot;font-size: 20px&quot;&gt;Grayscale Image&lt;/font&gt;" style="edgeLabel;html=1;align=center;verticalAlign=middle;resizable=0;points=[];" vertex="1" connectable="0" parent="AvfYTHyhtZwUQ6fmVQS9-11">
          <mxGeometry x="-0.219" relative="1" as="geometry">
            <mxPoint x="23" y="-18" as="offset" />
          </mxGeometry>
        </mxCell>
        <mxCell id="AvfYTHyhtZwUQ6fmVQS9-10" value="&lt;font style=&quot;font-size: 20px&quot;&gt;Channel Splitting&lt;/font&gt;" style="rounded=1;whiteSpace=wrap;html=1;strokeWidth=3;" vertex="1" parent="1">
          <mxGeometry x="493" y="298" width="123" height="162" as="geometry" />
        </mxCell>
        <mxCell id="AvfYTHyhtZwUQ6fmVQS9-15" style="edgeStyle=orthogonalEdgeStyle;rounded=0;orthogonalLoop=1;jettySize=auto;html=1;strokeWidth=3;exitX=1;exitY=0.5;exitDx=0;exitDy=0;" edge="1" parent="1" source="4hAyHRP81Br7KVnaIdBe-4">
          <mxGeometry relative="1" as="geometry">
            <mxPoint x="1110" y="379" as="targetPoint" />
            <mxPoint x="933" y="348.4999999999999" as="sourcePoint" />
          </mxGeometry>
        </mxCell>
        <mxCell id="AvfYTHyhtZwUQ6fmVQS9-16" value="&lt;span style=&quot;font-size: 20px&quot;&gt;Noise&lt;/span&gt;" style="edgeLabel;html=1;align=center;verticalAlign=middle;resizable=0;points=[];" vertex="1" connectable="0" parent="AvfYTHyhtZwUQ6fmVQS9-15">
          <mxGeometry x="-0.1909" y="1" relative="1" as="geometry">
            <mxPoint x="19" y="-18" as="offset" />
          </mxGeometry>
        </mxCell>
        <mxCell id="AvfYTHyhtZwUQ6fmVQS9-17" style="edgeStyle=orthogonalEdgeStyle;rounded=0;orthogonalLoop=1;jettySize=auto;html=1;strokeWidth=3;exitX=1;exitY=0.75;exitDx=0;exitDy=0;" edge="1" parent="1" source="4hAyHRP81Br7KVnaIdBe-4">
          <mxGeometry relative="1" as="geometry">
            <mxPoint x="1110" y="420" as="targetPoint" />
            <mxPoint x="943" y="427.4999999999999" as="sourcePoint" />
          </mxGeometry>
        </mxCell>
        <mxCell id="AvfYTHyhtZwUQ6fmVQS9-18" value="&lt;font style=&quot;font-size: 20px&quot;&gt;Noise Ratio&lt;/font&gt;" style="edgeLabel;html=1;align=center;verticalAlign=middle;resizable=0;points=[];" vertex="1" connectable="0" parent="AvfYTHyhtZwUQ6fmVQS9-17">
          <mxGeometry x="-0.1909" y="1" relative="1" as="geometry">
            <mxPoint x="19" y="-18" as="offset" />
          </mxGeometry>
        </mxCell>
      </root>
    </mxGraphModel>
  </diagram>
</mxfile>
